<?xml version="1.0" standalone="no"?>
<!DOCTYPE svg PUBLIC "-//W3C//DTD SVG 20010904//EN"
 "http://www.w3.org/TR/2001/REC-SVG-20010904/DTD/svg10.dtd">
<svg version="1.0" xmlns="http://www.w3.org/2000/svg"
 width="645.000000pt" height="650.000000pt" viewBox="0 0 645.000000 650.000000"
 preserveAspectRatio="xMidYMid meet">

<g transform="translate(0.000000,650.000000) scale(0.100000,-0.100000)"
fill="#000000" stroke="none">
<path d="M2924 5965 c-426 -54 -819 -199 -1164 -430 -172 -115 -274 -198 -420
-345 -341 -340 -569 -730 -694 -1190 -56 -206 -96 -481 -96 -662 l0 -58 40 0
40 0 0 63 c0 166 41 445 94 639 198 722 698 1325 1371 1653 188 92 308 136
499 185 243 62 352 74 651 75 199 0 285 -4 369 -18 475 -76 869 -245 1246
-535 109 -84 358 -333 442 -442 201 -262 353 -552 442 -846 38 -126 86 -340
86 -387 0 -26 2 -28 38 -25 l37 3 -2 51 c-5 114 -74 380 -147 569 -347 887
-1120 1515 -2069 1681 -131 23 -186 27 -402 30 -175 2 -283 -1 -361 -11z"/>
<path d="M1985 4462 c-101 -48 -166 -96 -272 -200 -271 -266 -474 -643 -473
-879 0 -77 20 -129 69 -185 l31 -35 -173 -6 c-382 -11 -718 -117 -942 -296
-41 -33 -55 -50 -55 -70 0 -40 35 -88 82 -113 40 -21 54 -23 208 -22 91 1 230
7 310 13 80 7 173 14 208 16 34 3 105 11 158 20 52 8 99 13 104 10 4 -2 43 4
86 15 44 11 144 29 223 40 79 12 152 25 162 30 10 6 34 10 54 10 l36 0 -23
-41 c-30 -54 -73 -83 -120 -84 -21 0 -38 -3 -38 -7 0 -4 20 -19 43 -33 33 -19
58 -25 101 -25 77 0 103 21 152 123 21 45 39 83 39 84 0 1 107 23 238 49 214
43 237 50 231 66 -5 17 -3 17 34 -2 35 -18 46 -20 81 -10 22 6 43 15 46 20 4
6 13 7 23 1 9 -5 37 -5 62 -1 139 25 233 39 295 45 60 6 124 17 245 41 14 3
42 8 63 11 36 5 49 17 25 25 -7 3 14 10 47 16 49 10 61 10 75 -3 28 -25 76
-18 128 19 38 28 51 32 66 24 15 -8 16 -12 5 -19 -22 -13 -7 -16 56 -10 49 5
60 9 59 24 -1 10 5 17 17 17 11 0 18 -6 17 -12 -5 -21 41 -20 71 1 44 32 81
44 81 26 0 -31 50 -28 50 4 1 14 2 14 14 -1 7 -10 23 -18 35 -18 20 0 15 -8
-34 -62 -65 -72 -161 -228 -182 -297 -8 -25 -12 -63 -10 -84 4 -30 3 -36 -8
-27 -21 18 -125 8 -182 -16 -29 -13 -53 -27 -53 -31 0 -4 -21 -9 -46 -10 -26
-1 -57 -9 -70 -18 -14 -9 -37 -14 -52 -13 -20 2 -27 -1 -27 -14 0 -10 -9 -24
-20 -32 -32 -23 -11 -29 50 -15 49 11 59 17 67 41 11 31 29 36 48 13 8 -9 17
-12 24 -6 6 4 35 11 65 14 29 4 65 14 78 23 14 9 36 14 49 11 19 -3 24 0 25
17 1 17 2 18 6 4 5 -21 4 -21 38 -8 23 9 34 4 85 -31 43 -31 71 -43 107 -46
96 -10 183 33 247 122 34 46 45 54 97 69 32 9 64 13 72 10 8 -3 18 -1 22 5 3
6 23 11 43 11 20 0 56 5 80 10 23 6 68 12 100 15 31 2 102 13 157 25 55 11
143 27 195 35 325 50 826 148 908 176 31 11 76 24 99 29 79 17 141 59 169 113
29 55 3 80 -131 128 -116 41 -191 48 -472 49 l-243 0 39 39 c21 21 57 64 81
94 34 45 49 58 79 63 39 7 153 75 215 128 36 31 38 34 18 40 -15 5 -39 -6 -88
-40 -66 -45 -82 -53 -132 -69 -22 -6 -21 -2 17 74 70 139 112 353 81 412 -23
42 -102 62 -146 36 -43 -25 -145 -160 -192 -253 -11 -22 -32 -45 -46 -52 -14
-6 -34 -29 -45 -50 -62 -121 -252 -307 -336 -328 l-28 -7 7 42 c9 59 47 148
112 262 69 121 70 141 8 172 -30 15 -33 15 -56 -2 -13 -10 -36 -46 -52 -80
-17 -33 -34 -61 -38 -61 -5 0 -56 -38 -115 -85 -58 -47 -107 -84 -109 -82 -2
2 14 46 36 97 46 112 49 142 15 175 -31 32 -66 32 -104 -1 l-30 -25 -46 35
c-85 65 -147 70 -231 21 -51 -30 -138 -130 -179 -208 -50 -94 -138 -211 -213
-284 -108 -106 -257 -202 -279 -179 -9 9 35 153 73 234 18 40 63 116 99 168
36 52 65 105 65 118 0 34 -53 76 -94 76 -18 0 -55 -7 -82 -15 -53 -16 -114
-20 -114 -7 0 13 31 55 75 102 23 25 45 53 49 63 9 26 -55 90 -86 85 -43 -6
-156 -178 -143 -218 10 -33 46 -70 87 -91 32 -16 50 -19 94 -13 30 3 54 4 54
1 0 -3 -15 -32 -34 -64 -33 -56 -128 -282 -141 -334 -16 -64 51 -169 106 -169
59 0 317 207 396 318 31 43 43 40 43 -10 0 -30 63 -88 96 -88 64 0 221 138
364 322 24 32 46 55 48 53 2 -2 -20 -72 -49 -155 -58 -169 -30 -133 -239 -306
-63 -52 -95 -73 -124 -77 -51 -8 -67 -24 -43 -41 15 -12 15 -15 2 -26 -12 -10
-17 -8 -26 14 -7 14 -20 28 -30 31 -11 4 -87 -3 -171 -15 -84 -12 -179 -23
-212 -25 -32 -2 -61 -7 -65 -11 -3 -5 -19 -10 -36 -11 -49 -3 -106 -10 -175
-21 -88 -14 -218 -30 -315 -38 -44 -4 -86 -11 -92 -16 -7 -6 -48 -12 -90 -14
-43 -1 -79 -8 -81 -13 -2 -6 -22 -11 -45 -11 -23 0 -96 -10 -162 -21 -66 -12
-138 -23 -159 -25 -22 -2 -60 -8 -85 -13 -25 -5 -98 -17 -161 -26 -63 -9 -125
-18 -137 -21 -26 -5 -27 -2 -13 46 6 19 33 124 61 233 27 108 54 209 59 223
25 64 61 228 56 250 -7 25 -52 54 -86 54 -11 0 -46 -13 -78 -29 -81 -41 -257
-98 -324 -106 -62 -8 -71 -17 -36 -36 37 -20 153 -4 267 36 57 20 105 34 108
32 8 -8 -60 -132 -105 -190 -62 -82 -207 -233 -248 -258 -43 -26 -148 -59
-191 -59 -63 0 -143 103 -143 184 0 55 30 186 61 264 16 40 29 80 29 90 0 9
20 43 45 74 25 32 45 65 45 74 0 25 31 72 52 77 10 3 18 12 18 20 0 16 16 35
216 247 99 106 142 143 197 174 80 45 245 92 262 75 5 -5 9 -36 9 -67 -2 -78
-52 -204 -100 -254 -31 -31 -35 -40 -24 -53 22 -27 48 -16 94 38 61 70 118
188 124 254 4 50 3 55 -34 91 -84 84 -244 108 -359 54z m3595 -464 c0 -85 -61
-287 -113 -375 -15 -26 -22 -30 -40 -24 -12 4 -30 23 -40 42 -25 47 -15 115
29 206 33 67 134 193 155 193 5 0 9 -19 9 -42z m-1143 -150 c18 -18 33 -39 33
-47 0 -23 -100 -148 -182 -227 -68 -66 -172 -133 -186 -119 -9 9 15 113 38
159 29 61 113 160 183 216 34 27 66 49 72 50 5 0 24 -14 42 -32z m323 -227
c-11 -28 -20 -74 -20 -101 0 -43 4 -54 35 -85 68 -67 115 -56 244 61 l71 65
-6 -44 c-7 -53 20 -124 59 -153 l24 -19 -61 -13 c-33 -7 -101 -15 -151 -17
-49 -3 -110 -7 -135 -10 -25 -2 -67 -7 -95 -9 -139 -13 -235 -25 -245 -31 -18
-11 -11 17 30 125 29 77 49 113 73 135 48 44 191 154 195 151 1 -2 -6 -27 -18
-55z m574 2 c23 -21 55 -47 71 -58 l28 -21 -44 -53 c-59 -73 -108 -111 -152
-118 -32 -5 -37 -3 -42 19 -11 44 13 139 52 205 21 34 40 63 42 63 2 0 23 -17
45 -37z m-973 -315 c-13 -39 -24 -54 -42 -58 -70 -19 -81 -20 -77 -11 3 9 127
121 134 121 2 0 -5 -23 -15 -52z m-2401 -25 c0 -24 -66 -246 -94 -315 l-33
-83 -129 -16 c-171 -21 -190 -24 -399 -59 -99 -16 -205 -32 -235 -34 -30 -2
-116 -11 -190 -20 -225 -25 -600 -20 -600 10 0 35 145 129 283 184 157 61 488
132 732 156 39 3 75 11 82 16 7 6 14 5 18 -2 3 -6 29 -22 58 -36 45 -23 60
-26 131 -22 107 5 176 42 283 147 74 75 93 89 93 74z m3045 -3 c-3 -5 -13 -10
-21 -10 -8 0 -14 5 -14 10 0 6 9 10 21 10 11 0 17 -4 14 -10z m-54 -26 c8 -9
21 -13 33 -9 48 14 222 20 541 19 343 -2 483 -14 521 -44 20 -17 11 -26 -64
-64 -84 -42 -98 -46 -369 -101 -122 -25 -234 -50 -250 -56 -15 -6 -50 -13 -78
-15 -27 -2 -80 -9 -117 -15 -37 -6 -78 -12 -90 -14 -136 -20 -204 -40 -212
-60 -7 -20 -26 -19 -26 0 0 27 -35 15 -59 -20 -17 -25 -31 -35 -50 -35 -25 1
-25 1 -7 15 34 25 -6 29 -112 10 -53 -10 -110 -19 -127 -20 -16 -2 -48 -7 -70
-13 -22 -5 -51 -10 -65 -10 -14 -1 -33 -11 -42 -23 -10 -12 -18 -17 -18 -13 0
15 142 388 152 402 6 7 33 12 62 12 56 0 69 6 79 33 8 21 50 22 68 1 12 -15
73 -16 149 -1 14 3 46 6 73 6 35 1 47 5 47 16 0 19 14 19 31 -1z m-234 -10
c-3 -3 -12 -4 -19 -1 -8 3 -5 6 6 6 11 1 17 -2 13 -5z m-512 -54 c-3 -5 -11
-10 -16 -10 -6 0 -7 5 -4 10 3 6 11 10 16 10 6 0 7 -4 4 -10z m90 -4 c21 -15
20 -19 -26 -140 -17 -43 -20 -61 -11 -64 7 -2 12 -8 12 -13 0 -4 -6 -6 -14 -3
-10 4 -20 -12 -35 -53 -12 -32 -32 -77 -44 -100 -21 -41 -24 -43 -66 -43 -32
0 -51 -6 -68 -22 -17 -15 -23 -18 -23 -7 -1 8 -13 -1 -30 -20 -27 -32 -29 -33
-51 -17 -13 9 -38 16 -56 16 -20 0 -33 5 -33 13 0 22 67 154 111 219 24 35 74
95 111 134 65 68 73 72 124 79 37 4 54 11 54 21 0 18 21 18 45 0z m-777 -78
c-3 -7 -20 -14 -38 -16 -30 -3 -32 -2 -21 12 16 19 65 22 59 4z m832 -33 c0
-8 -4 -15 -10 -15 -5 0 -7 7 -4 15 4 8 8 15 10 15 2 0 4 -7 4 -15z m-20 -59
c0 -8 -4 -18 -10 -21 -5 -3 -10 3 -10 14 0 12 5 21 10 21 6 0 10 -6 10 -14z
m-1445 -6 c-3 -5 -10 -10 -16 -10 -5 0 -9 5 -9 10 0 6 7 10 16 10 8 0 12 -4 9
-10z m-605 -90 c-19 -13 -30 -13 -30 0 0 6 10 10 23 10 18 0 19 -2 7 -10z
m2760 -20 c0 -5 -4 -10 -10 -10 -5 0 -10 5 -10 10 0 6 5 10 10 10 6 0 10 -4
10 -10z m-411 -64 c9 -11 9 -15 -1 -19 -19 -6 -38 3 -38 19 0 18 24 18 39 0z
m-545 -167 c-39 -41 -49 -46 -115 -54 -51 -6 -58 -5 -85 19 -24 22 -27 27 -14
36 23 15 40 12 33 -6 -7 -18 18 -15 127 16 88 24 88 24 54 -11z m-434 -39 c0
-5 -11 -10 -25 -10 -14 0 -25 5 -25 10 0 6 11 10 25 10 14 0 25 -4 25 -10z"/>
<path d="M5133 4328 c-6 -7 -38 -66 -72 -131 -40 -78 -61 -129 -61 -152 l0
-35 48 0 c56 0 67 9 106 88 15 29 42 77 61 107 40 62 43 87 15 115 -23 23 -82
27 -97 8z"/>
<path d="M3200 4125 c-43 -23 -134 -143 -184 -242 -14 -29 -33 -53 -40 -53
-17 0 -40 -28 -109 -135 -62 -97 -205 -242 -268 -272 -25 -13 -60 -23 -76 -23
-62 0 -66 84 -12 211 18 41 32 55 81 85 114 66 198 151 213 216 10 41 -31 78
-87 78 -36 0 -52 -7 -93 -40 -132 -107 -247 -299 -247 -415 -1 -99 75 -188
162 -188 47 0 83 23 188 118 l72 67 0 -36 c0 -48 16 -85 53 -124 36 -37 119
-67 146 -52 25 13 155 152 176 188 14 24 28 32 59 38 47 7 132 57 206 120 50
43 50 44 26 50 -20 5 -34 -1 -61 -25 -35 -31 -109 -72 -153 -86 -22 -6 -22 -4
12 64 72 142 116 364 85 423 -12 22 -67 48 -101 48 -13 -1 -34 -7 -48 -15z
m97 -147 c-13 -141 -100 -370 -143 -376 -38 -5 -59 33 -59 107 1 57 6 76 40
140 38 72 136 191 158 191 6 0 8 -22 4 -62z m-573 -112 c-15 -24 -62 -64 -94
-80 -8 -4 10 17 42 48 60 60 78 71 52 32z m403 -303 c23 -9 14 -31 -36 -91
-33 -39 -68 -69 -103 -86 -49 -25 -54 -25 -65 -9 -27 36 -6 144 43 223 l36 59
57 -46 c31 -25 62 -48 68 -50z"/>
<path d="M3358 3073 c-29 -7 -21 -23 11 -23 34 0 49 15 25 24 -9 3 -16 5 -17
5 -1 -1 -10 -3 -19 -6z"/>
<path d="M5816 2809 c-3 -8 -12 -48 -21 -89 -21 -101 -62 -239 -96 -328 l-27
-72 35 -15 c20 -9 38 -13 40 -11 12 12 79 219 109 337 37 148 41 179 22 179
-7 0 -23 3 -35 6 -15 4 -24 1 -27 -7z"/>
<path d="M3212 2551 c-30 -10 -67 -28 -83 -40 -34 -25 -124 -55 -144 -47 -7 2
-21 -1 -31 -9 -13 -9 -24 -10 -37 -4 -20 11 -37 4 -37 -16 0 -8 -13 -15 -32
-17 -36 -3 -44 -21 -12 -26 10 -2 29 -8 41 -14 17 -9 34 -5 88 20 36 17 71 29
78 26 7 -2 42 6 78 18 50 19 63 28 61 42 -3 16 2 18 40 14 32 -3 48 1 63 15
20 18 20 19 -17 12 -31 -6 -38 -4 -38 9 0 9 8 16 19 16 11 0 23 5 26 10 8 14
-1 12 -63 -9z m-287 -131 c-3 -5 -13 -10 -21 -10 -8 0 -14 5 -14 10 0 6 9 10
21 10 11 0 17 -4 14 -10z"/>
<path d="M2780 2365 c0 -12 8 -16 33 -13 17 2 32 8 32 13 0 6 -15 11 -32 13
-25 3 -33 -1 -33 -13z"/>
<path d="M2685 2341 c-70 -22 -135 -49 -117 -50 21 -2 13 -21 -9 -21 -11 0
-17 5 -14 10 10 17 -4 11 -25 -10 -17 -17 -18 -23 -8 -34 11 -12 23 -10 78 10
80 30 170 84 170 101 0 16 -1 16 -75 -6z"/>
<path d="M2390 2205 c0 -23 -3 -26 -23 -21 -46 11 -157 -82 -157 -132 0 -28
48 -76 100 -100 54 -25 218 -52 286 -47 16 1 44 3 62 3 33 2 46 22 14 22 -10
0 -22 4 -27 9 -6 4 -61 13 -123 20 -137 14 -222 42 -222 74 0 30 94 115 158
143 55 25 68 44 30 44 -13 0 -40 3 -60 6 -36 6 -38 5 -38 -21z"/>
<path d="M818 2204 c-16 -8 -28 -17 -28 -20 0 -16 117 -236 170 -320 428 -681
1130 -1132 1940 -1246 142 -20 574 -17 717 5 569 85 1056 319 1473 706 l75 69
-27 28 -27 27 -66 -59 c-387 -345 -767 -550 -1207 -648 -236 -53 -315 -61
-598 -61 -290 1 -411 15 -645 76 -698 180 -1286 635 -1638 1265 -31 55 -65
122 -76 147 -22 52 -24 53 -63 31z"/>
<path d="M3609 2082 c-27 -24 -33 -37 -37 -83 -4 -51 -2 -58 27 -86 17 -17 44
-34 59 -38 15 -3 42 -14 60 -25 26 -16 32 -26 32 -55 0 -85 -110 -105 -135
-25 -4 14 -15 20 -35 20 -27 0 -28 -2 -20 -29 21 -75 65 -106 138 -98 63 7
103 49 109 114 7 69 -15 108 -75 134 -98 44 -97 43 -100 80 -4 44 15 62 60 57
23 -2 36 -10 43 -25 7 -16 18 -23 37 -23 40 0 37 33 -6 76 -29 29 -41 34 -80
34 -36 0 -52 -6 -77 -28z"/>
<path d="M2850 1886 l0 -216 35 0 34 0 3 95 3 95 65 -95 c62 -90 67 -94 103
-95 20 0 37 2 37 5 0 3 -25 39 -55 79 -30 40 -55 75 -55 78 0 3 14 8 30 12 67
13 105 95 79 170 -23 66 -54 80 -175 84 l-104 4 0 -216z m196 139 c30 -19 40
-57 24 -94 -14 -35 -47 -51 -105 -51 l-45 0 0 86 0 87 51 -6 c28 -4 62 -13 75
-22z"/>
<path d="M3240 1885 l0 -215 110 0 110 0 0 30 0 30 -80 0 -80 0 0 65 0 65 80
0 c79 0 80 0 80 25 0 25 -1 25 -80 25 l-80 0 0 70 0 70 80 0 c79 0 80 0 80 25
l0 25 -110 0 -110 0 0 -215z"/>
<path d="M3870 2076 c0 -22 5 -25 43 -28 l42 -3 3 -187 2 -188 30 0 30 0 0
190 0 190 40 0 c36 0 40 3 40 25 l0 25 -115 0 -115 0 0 -24z"/>
<path d="M4256 2092 c-3 -5 -40 -97 -81 -203 -42 -107 -79 -200 -82 -206 -3
-9 6 -13 30 -13 33 0 35 2 56 60 l22 60 89 0 88 0 17 -52 c22 -66 26 -70 62
-66 l30 3 -81 210 c-81 207 -83 210 -113 213 -17 2 -34 -1 -37 -6z m63 -149
c13 -38 26 -74 29 -80 3 -10 -12 -13 -57 -13 -34 0 -61 3 -61 8 0 13 54 152
60 152 3 0 16 -30 29 -67z"/>
<path d="M4552 1915 l3 -185 32 -31 c26 -26 42 -33 86 -37 66 -5 109 14 134
61 14 26 18 65 21 205 l4 172 -36 0 -36 0 0 -170 c0 -157 -2 -172 -20 -190
-27 -27 -81 -26 -106 1 -17 19 -19 41 -22 190 l-3 169 -30 0 -30 0 3 -185z"/>
<path d="M4940 1885 l0 -215 30 0 29 0 3 96 3 97 68 -97 c67 -94 70 -96 108
-96 l40 0 -61 83 -61 82 33 7 c52 10 88 61 88 124 0 37 -6 59 -21 78 -35 44
-70 56 -169 56 l-90 0 0 -215z m142 159 c50 -9 78 -37 78 -78 0 -56 -27 -79
-99 -84 l-61 -4 0 86 c0 96 -3 94 82 80z"/>
<path d="M5385 1978 c-26 -68 -63 -161 -81 -207 -19 -47 -34 -89 -34 -94 0 -4
14 -7 31 -5 27 3 34 10 53 58 l22 55 89 0 88 0 20 -57 c20 -55 22 -58 55 -58
41 0 47 -23 -54 233 l-77 197 -32 0 c-32 0 -33 -1 -80 -122z m135 -115 c0 -9
-18 -13 -61 -13 -33 0 -59 4 -57 8 2 4 16 43 32 86 l30 78 28 -73 c15 -41 28
-79 28 -86z"/>
<path d="M5730 1885 l0 -215 30 0 30 0 2 162 3 163 104 -163 c101 -156 106
-162 138 -162 l33 0 0 215 0 215 -35 0 -34 0 6 -160 c3 -88 4 -160 1 -160 -4
0 -53 72 -110 160 -98 152 -105 160 -135 160 l-33 0 0 -215z"/>
<path d="M6150 2075 c0 -22 4 -25 40 -25 l40 0 0 -190 0 -190 30 0 30 0 0 190
0 190 40 0 c36 0 40 3 40 25 l0 25 -110 0 -110 0 0 -25z"/>
</g>
</svg>
